<svg viewBox="29.086538461538453 171.76249999999993 780.0480769230769 739.9000000000001" xmlns="http://www.w3.org/2000/svg" overflow="visible" xmlns:xlink="http://www.w3.org/1999/xlink" width="780.0480769230769px" height="739.9000000000001px"><g id="Master/Comps/Desk" stroke="none" stroke-width="1" fill="none" fill-rule="evenodd"><g id="Blob" opacity=".288" transform="translate(8.500000, 153.891534) scale(1.5086372360844529 1.5089820359281436)"><g id="Blob/1" stroke="none" stroke-width="1" fill="none" fill-rule="evenodd"><path d="M421.532241,44.5681909 C463.077658,70.8943232 491.70403,118.895328 499.790051,167.826584 C507.969014,216.850866 495.607626,266.898425 478.5991,314.248253 C461.683517,361.691106 440.120795,406.343203 404.709601,437.22757 C369.391349,468.018912 320.224625,484.949499 272.266158,483.368071 C224.214747,481.693617 177.464536,461.507148 134.153206,433.320512 C90.841877,405.04085 50.96943,368.761021 31.82322,322.620521 C12.6770101,276.573046 14.1640943,220.664899 35.0762169,175.733726 C55.9883394,130.802554 96.3255002,96.8483546 138.893287,70.801298 C181.461075,44.8472665 226.259488,26.8003772 275.890926,20.1955878 C325.522363,13.4977733 379.986825,18.2420586 421.532241,44.5681909 Z" id="blobs-burgers" fill="#FFB23C"/></g></g><g id="Chair" transform="translate(35.000000, 285.000000) scale(1 1)"><g id="Chair/Office" stroke="none" stroke-width="1" fill="none" fill-rule="evenodd"><g id="Group-21" transform="translate(17.000000, 0.000000)"><path d="M103.2542,227.355 L103.2542,293.645 C103.2542,299.474876 108.026017,304.340723 113.823279,304.496169 L114.1092,304.5 L180.3992,304.5 L180.3992,343.5 L114.1092,343.5 C86.9192929,343.5 64.7025164,321.555123 64.2608998,294.467397 L64.2542,293.645 L64.2542,227.355 L103.2542,227.355 Z" id="Stroke-1" fill="#0A1B45" fill-rule="nonzero"/><path d="M120.6111,258 L96.1921,258 C43.2861,258 0.0001,214.713 0.0001,161.808 L0.0001,96.192 C0.0001,43.287 43.2861,0 96.1921,0 L120.6111,0 C153.6901,0 180.7541,27.064 180.7541,60.143 L180.7541,197.857 C180.7541,230.936 153.6901,258 120.6111,258" id="Fill-3" fill="#5A328E"/><path d="M253.7542,571 L243.7542,571 C239.3542,571 235.7542,566.352 235.7542,560.67 L235.7542,346.33 C235.7542,340.648 239.3542,336 243.7542,336 L253.7542,336 C258.1542,336 261.7542,340.648 261.7542,346.33 L261.7542,560.67 C261.7542,566.352 258.1542,571 253.7542,571" id="Fill-5" fill="#55B0EB"/><path d="M261.7542,586 L248.7542,586 L235.7542,586 C235.7542,586 145.7542,600.6 145.7542,594 L145.7542,591 C145.7542,584.4 151.1542,579 157.7542,579 L235.7542,559 L248.7542,559 L261.7542,559 L339.7542,579 C346.3542,579 351.7542,584.4 351.7542,591 L351.7542,594 C351.7542,600.6 261.7542,586 261.7542,586" id="Fill-7" fill="#0A1B45"/><path d="M256.8313,475 L240.6773,475 C233.5693,475 227.7543,472.25 227.7543,468.89 L227.7543,342.11 C227.7543,338.75 233.5693,336 240.6773,336 L256.8313,336 C263.9383,336 269.7543,338.75 269.7543,342.11 L269.7543,468.89 C269.7543,472.25 263.9383,475 256.8313,475" id="Fill-9" fill="#55B0EB"/><path d="M344.011,356 L153.497,356 C138.239,356 125.754,343.516 125.754,328.257 L125.754,313.743 C125.754,298.484 138.239,286 153.497,286 L344.011,286 C359.27,286 371.754,298.484 371.754,313.743 L371.754,328.257 C371.754,343.516 359.27,356 344.011,356" id="Fill-11" fill="#5A328E"/><path d="M161.7542,608 C161.7542,615.732 155.4862,622 147.7542,622 C140.0222,622 133.7542,615.732 133.7542,608 C133.7542,600.268 140.0222,594 147.7542,594 C155.4862,594 161.7542,600.268 161.7542,608" id="Fill-13" fill="#0A1B45"/><path d="M365.7542,608 C365.7542,615.732 359.4862,622 351.7542,622 C344.0222,622 337.7542,615.732 337.7542,608 C337.7542,600.268 344.0222,594 351.7542,594 C359.4862,594 365.7542,600.268 365.7542,608" id="Fill-15" fill="#0A1B45"/><path d="M263.7542,608 C263.7542,615.732 257.4862,622 249.7542,622 C242.0222,622 235.7542,615.732 235.7542,608 C235.7542,600.268 242.0222,594 249.7542,594 C257.4862,594 263.7542,600.268 263.7542,608" id="Fill-17" fill="#0A1B45"/><path d="M253.7542,596 L245.7542,596 L235.7542,571 C235.7542,564.4 241.1542,559 247.7542,559 L251.7542,559 C258.3542,559 263.7542,564.4 263.7542,571 L253.7542,596 Z" id="Fill-19" fill="#0A1B45"/></g></g></g><g transform="translate(-111.000000, 211.000000) scale(1 1)" id="Master/Character/Sitting"><g id="Master/Character/Sitting" stroke="none" stroke-width="1" fill="none" fill-rule="evenodd"><g id="Legs Sitting" transform="translate(317.000000, 266.000000) scale(1 1)"><g id="Legs Sitting/Loose Pants Relaxed" stroke="none" stroke-width="1" fill="none" fill-rule="evenodd"><g id="Group-15" transform="translate(0.000000, 0.000000)"><path d="M555.00886,261.163881 C553.03502,255.404769 550.996616,249.687826 548.893646,244 L470,278.566722 C475.024991,292.200436 479.702254,306.000819 483.67207,320 C484.541851,319.723892 509.661271,311.737843 511.269858,311.226792 C511.214517,309.46974 510.874168,306.483757 510.712755,304.682529 C536.326557,309.130378 572.255979,289.773697 597,283.974424 C593.790204,255.658789 577.128781,269.084669 555.00886,261.163881" id="Fill-3" fill="#0A1B45"/><path d="M130.881321,0.24197269 L108.423122,52.6222664 C104.777509,58.6086428 108.856992,60.1841628 112.577981,62.6248699 C171.400489,100.439347 242.960582,84.0807142 305.364358,103.781208 C388.766718,124.563684 427.00429,222.465715 454.650648,302 L488.133113,288.471709 C489.669124,282.472344 491.122405,276.39905 492.492957,270.269807 C497.149708,273.784506 501.778883,277.395114 506.3814,281.098635 L575,253.37368 C495.805814,31.7948318 389.304573,0.877175977 176.465486,-2.27373675e-13 C176.465486,0.161315127 161.270764,0.24197269 130.881321,0.24197269 Z" id="Fill-5" fill="#CC2935"/><path d="M342.615113,415.839249 L281.930577,415.982108 C278.644,415.987103 275.97578,413.16489 275.958323,409.660351 C274.316412,324.989962 275.044109,238.969907 259.462038,155.949888 C257.528865,142.546124 245.651429,136.111478 236.19781,129.062439 C196.418002,102.488681 148.098789,98.4206978 103,85.1128392 L122.195744,9 C180.747726,24.340851 246.690601,33.8424683 295.187144,77.9599026 C312.397344,91.7632719 324.042321,109.617641 328.812774,132.441103 C340.132493,180.79835 342.417569,230.960815 345.272307,280.362032 C343.967599,296.830769 356.005826,421.07408 342.615113,415.839249" id="Fill-7" fill="#ffdbb4"/><path d="M354.942028,390.530844 L354.707724,373 L270,374.606711 C270.185605,388.159271 270.429098,409.075506 270.389588,422.470095 C271.291887,422.474095 297.361174,422.591074 299.029784,422.599072 L300.290431,415.729309 L316.067807,422.676058 C333.914408,422.755044 370.283874,422.921014 388,423 L387.986217,410.749205 C387.945789,402.344718 363.922755,399.682197 354.942028,390.530844" id="Fill-9" fill="#0A1B45"/><path d="M95.7918261,0.121177085 C94.9330782,3.55436104 93.3379057,94.6268952 100.263114,98.9256298 C160.422761,98.9256298 226.597627,121.192995 237.521121,161.327626 C248.444615,201.462257 248.623176,321.656616 248.444615,393 L284.209209,392.553716 L294.10736,376.50951 L303.702694,392.310561 L377,391.39598 C374.169722,312.683908 371.239118,234.438134 358.337651,156.259402 C348.549029,94.3740344 329.677746,67.9882495 279.724023,37.1456295 C244.852233,15.9661566 206.119298,7.72601477 169.14988,0.121177085 C169.14988,-0.0403923616 144.697195,-0.0403923616 95.7918261,0.121177085 Z" id="Fill-11" fill="#FA3239"/><path d="M100.091346,99 L90.9086538,99 C40.7013654,99 -4.00177669e-11,54.676 -4.00177669e-11,-2.27373675e-13 L191,-2.27373675e-13 C191,54.676 150.298635,99 100.091346,99" id="Fill-13" fill="#FA3239"/></g><path d="M56,99 C25.072054,99 -4.00139793e-11,73.927946 -4.00177669e-11,43 L-4.00177669e-11,5.55111512e-17 L191,5.55111512e-17 C191,54.676 150.298635,99 100.091346,99 L56,99 Z" id="PELVIS-PLUS" fill="#FA3239"/></g></g><g id="Body" transform="translate(41.000000, -31.000000) scale(1 1)"><g id="Body/Bomber Jacket Shake Hand" stroke="none" stroke-width="1" fill="none" fill-rule="evenodd"><g id="Group-33" transform="translate(255.000000, 107.000000)"><path d="M233.1066,190.8684 L18.6256,190.8684 L18.6256,83.8064 C18.6256,60.3384 37.6506,41.3124 61.1196,41.3124 L190.6126,41.3124 C214.0816,41.3124 233.1066,60.3384 233.1066,83.8064 L233.1066,190.8684 Z" id="Fill-1" fill="#D7DBE2"/><path d="M164.6252,41.3128 C164.6252,57.8688 156.6252,78.8688 130.1252,78.8688 C98.6252,78.8688 85.6252,60.9498 85.6252,41.3128 L164.6252,41.3128 Z" id="SKIN" fill="#ffdbb4"/><path d="M171.76,253.2786 C197.625,253.8686 219.625,251.8686 243.071,244.0246 C245.235,243.2996 247.075,241.9216 246.876,239.6466 L243.72,203.5596 C219.639,204.6066 194.491,209.2836 168.022,213.4326 C167.524,226.3526 167.016,238.2786 166.549,248.6256 C166.421,251.4756 168.907,253.2136 171.76,253.2786" id="Fill-5" fill="#CC2935"/><path d="M6.177,204.7112 L3.315,237.4342 C2.978,241.2802 5.308,244.8862 8.976,246.0912 C33.563,254.1692 68.777,258.3152 91.893,259.9352 C95.554,260.1912 98.775,257.5892 99.327,253.9602 C100.894,243.6732 102.024,232.2482 102.799,220.0972 C78.092,219.1352 33.268,214.8262 6.177,204.7112" id="Fill-7" fill="#CC2935"/><path d="M46.9885,43.1155 C29.4965,48.3785 16.7525,64.6005 16.7525,83.8065 L6.1765,204.7115 C33.2675,214.8265 78.0925,219.1355 102.7995,220.0965 C105.8515,172.1915 109.6255,75.8685 80.6255,60.8685 C80.6255,60.8685 59.6255,38.8685 46.9885,43.1155" id="Fill-9" fill="#FA3239"/><path d="M168.0217,213.4329 C195.6257,214.8689 218.6257,212.8689 243.7197,203.5599 L233.2457,83.8069 C233.2457,62.4119 217.4317,44.7179 196.8567,41.7559 C194.1897,52.1209 184.5207,55.3719 170.6257,61.8689 C171.2787,106.2699 169.7467,168.7459 168.0217,213.4329" id="Fill-11" fill="#FA3239"/><path d="M299.9426,270.2083 C301.3926,279.2023 299.0006,287.9523 293.6746,294.7473 C288.3776,301.5633 280.1296,306.3123 270.4916,307.2863 C249.3676,309.4113 227.9446,310.3293 206.1396,309.6133 C193.9126,309.1613 181.5566,308.1543 169.0676,306.3433 C156.5806,304.5023 143.9576,301.9583 131.2556,297.9783 C118.5766,294.0113 105.7996,288.7453 93.4696,281.4433 L91.1586,280.0913 C90.3886,279.6423 89.6176,279.1973 88.8686,278.6633 L84.3526,275.5773 C82.8566,274.5283 81.3446,273.5263 79.8756,272.4233 C78.4216,271.2863 76.9556,270.1593 75.5256,268.9953 C69.8246,264.3123 64.5356,259.1923 59.7246,253.7723 C50.0866,242.9263 42.3756,230.9643 36.2646,218.7553 C30.1466,206.5263 25.5726,194.0273 22.0536,181.5623 C18.5416,169.0883 16.0806,156.6273 14.3556,144.2483 C12.6366,131.8663 11.6456,119.5603 11.2386,107.3273 C10.8536,96.0193 14.7206,85.8213 20.9556,78.8763 C27.1986,71.8913 35.7556,68.1633 44.8376,68.7863 C53.9366,69.4093 61.8646,74.0443 67.5916,80.6043 C73.3246,87.2023 76.8826,95.7403 77.2016,105.1043 C77.8896,125.4183 80.4516,145.4223 85.5766,163.6493 C90.6776,181.8583 98.5166,198.1263 109.0586,209.9303 C111.6876,212.8933 114.4836,215.5853 117.4426,218.0153 L119.6946,219.7883 C120.4656,220.3633 121.3116,220.8833 122.1086,221.4433 L124.5176,223.1203 C124.8996,223.4173 125.3496,223.6613 125.7956,223.9093 L127.1196,224.6653 C134.0736,228.7943 142.1166,232.2213 150.8166,234.9433 C159.5096,237.6883 168.9276,239.6123 178.6006,241.0353 C188.2936,242.4403 198.3046,243.2783 208.4736,243.6553 C226.6496,244.2493 245.2816,243.4973 263.9516,241.6103 C272.4456,240.7503 280.5766,243.4693 287.0946,248.5443 C293.5916,253.6473 298.4926,261.2093 299.9426,270.2083" id="SKIN" fill="#ffdbb4"/><path d="M323.2883,290.4251 C324.2643,295.3021 320.8153,300.0961 315.6053,301.0231 C292.9813,305.0341 270.2753,307.8251 247.1303,309.1121 C241.8053,309.4051 237.3323,305.5171 237.1723,300.5621 C237.0083,295.5811 241.0243,291.4211 246.1273,291.1421 C268.4483,289.9031 290.5213,287.1911 312.4393,283.3031 C317.4543,282.4111 322.3093,285.5561 323.2883,290.4251" id="SKIN" fill="#ffdbb4"/><path d="M331.1877,272.4153 C332.3157,277.2553 329.0337,282.1403 323.9667,283.1573 C314.1417,285.1183 304.3377,286.8113 294.4807,288.2373 C291.9447,288.5933 289.5077,287.9173 287.6387,286.5343 C285.7657,285.1363 284.4587,283.0283 284.1417,280.5653 C283.8247,278.0993 284.5457,275.7433 285.9497,273.9193 C287.3517,272.0773 289.4337,270.7693 291.8907,270.4253 C301.4407,269.0443 310.9537,267.3993 320.4127,265.5113 C325.2527,264.5403 330.0537,267.5743 331.1877,272.4153" id="SKIN" fill="#ffdbb4"/><path d="M329.4641,256.3899 C330.7391,261.2009 327.6621,266.0679 322.7711,267.0689 C313.2811,269.0209 303.7361,270.6749 294.1601,272.1109 C289.2191,272.8309 284.6891,269.3839 284.0481,264.4499 C283.4081,259.5259 286.7501,255.0009 291.5061,254.3069 C300.7731,252.9179 310.0341,251.3129 319.1331,249.4409 C323.8001,248.4859 328.3601,251.5479 329.4641,256.3899" id="SKIN" fill="#ffdbb4"/><path d="M291.9397,238.054 C292.7117,242.958 289.5177,247.554 284.7877,248.196 C275.6187,249.46 266.4247,250.487 257.2427,251.266 C254.8787,251.445 251.8517,249.463 249.4657,247.352 C247.0767,245.244 245.3107,243.1 245.3107,243.1 C250.8987,242.753 248.4337,233.931 258.4777,233.099 C266.4167,232.382 274.3777,231.453 282.3227,230.365 C286.8687,229.749 291.1667,233.139 291.9397,238.054" id="SKIN" fill="#ffdbb4"/><path d="M318.6428,242.3938 L318.6428,242.3938 C319.6798,247.2548 316.7028,252.0028 311.9398,252.8948 C296.0318,255.8618 279.9168,258.1898 263.8008,259.7088 C258.9778,260.2068 254.7638,256.4288 254.3928,251.4938 C254.0218,246.5158 257.4588,242.2708 262.0848,241.7908 C277.6298,240.3278 293.2648,238.0678 308.6038,235.2068 C313.1618,234.3538 317.6098,237.5328 318.6428,242.3938" id="SKIN" fill="#ffdbb4"/><path d="M240.9701,315.4166 C230.0081,315.8786 218.9651,316.0446 207.7701,315.6606 C207.4411,315.8856 207.0731,316.1066 206.6701,316.3226 C206.2681,316.5386 205.8421,316.7496 205.2791,316.9526 C204.2031,317.3686 202.9451,317.6986 201.5391,318.0386 C200.1321,318.3686 198.5671,318.6746 196.8541,318.9566 C195.1421,319.2396 193.2821,319.5066 191.2551,319.6646 C187.2081,320.0036 182.6241,320.3276 177.4411,320.2396 C176.1501,320.2246 174.8281,320.2106 173.4771,320.1946 C172.1271,320.1786 170.7421,320.1416 169.3091,320.0396 C166.4541,319.8686 163.4811,319.6576 160.3981,319.4096 C147.9991,318.1656 133.5891,315.6936 117.6981,310.5296 C109.7701,307.9916 101.4571,304.5896 92.9951,300.4056 C91.9401,299.9236 90.8791,299.3426 89.8171,298.7436 C88.7571,298.1496 87.6931,297.5536 86.6271,296.9566 C84.4981,295.7376 82.3611,294.5616 80.2331,293.2416 C78.1091,291.8396 75.9861,290.4116 73.8651,288.9566 C72.8091,288.2246 71.7491,287.4916 70.6881,286.7566 C69.6291,286.0166 68.5961,285.1716 67.5511,284.3736 C63.3581,281.1566 59.4041,277.6286 55.5561,273.9816 C51.7971,270.2746 48.1271,266.4396 44.7911,262.4136 C38.0101,254.4016 32.2271,245.8346 27.3041,237.1356 C22.3531,228.4306 18.3911,219.5816 15.0571,210.8336 C11.7521,202.0806 9.1931,193.4246 7.1381,184.9896 C3.0911,168.1186 1.1481,152.1536 0.3911,137.6456 C-0.3709,123.1286 0.0531,110.0396 1.0411,98.7846 C0.8511,83.3646 6.5081,69.6316 15.2571,60.5206 C24.0011,51.3696 37.3171744,41.7559 55.5561,42.5711833 C73.7950256,43.3864666 74.4004745,44.7862767 81.6664745,53.5972767 C88.9214745,62.4402767 88.8861,85.6556 89.0351,97.7406 C90.6091,109.4856 92.4841,121.5576 94.9381,133.3016 C97.3711,145.0466 100.4171,156.4556 104.1501,166.6816 C105.9941,171.8146 108.0631,176.5826 110.2131,181.0166 C112.3881,185.4246 114.7061,189.4156 117.0921,193.0096 C119.5111,196.5576 121.9941,199.7086 124.5631,202.4986 C125.8751,203.8476 127.1561,205.1976 128.5181,206.3916 L129.5241,207.3116 L130.6471,208.1726 C131.3871,208.7536 132.1131,209.3486 132.8281,209.9606 C133.1621,210.2806 133.5821,210.5506 134.0031,210.8236 L135.2361,211.6606 C136.0531,212.2236 136.8561,212.8016 137.6551,213.3876 C139.4871,214.4086 141.1951,215.5266 143.0141,216.5756 C143.9751,217.0716 144.9271,217.5646 145.8711,218.0526 C146.3421,218.3056 146.8111,218.5566 147.2771,218.8066 C147.7401,219.0636 148.2021,219.3206 148.7191,219.5316 C150.7351,220.4526 152.7131,221.3566 154.6501,222.2416 C162.6401,225.7246 170.9961,228.3726 178.5011,230.6656 C186.0081,232.9976 192.8771,234.7226 198.3171,236.3906 C201.0551,237.1946 203.4791,237.9026 205.4811,238.6456 C206.4861,239.0046 207.3811,239.3916 208.1931,239.7116 C209.0031,240.0436 209.5471,240.3706 210.0861,240.6966 C219.1861,241.0166 228.4491,240.8786 237.7541,240.4856 L240.9701,315.4166 Z" id="Fill-28" fill="#FA3239"/><path d="M208.1359,315.6673 L210.4309,239.2023 C219.3929,239.5103 228.5179,239.3763 237.6899,238.9843 L240.9689,315.4143 C230.1289,315.8763 219.2049,316.0373 208.1359,315.6673" id="Fill-31" fill="#CC2935"/><path d="M74.6252,0.8684 C33.6252,5.8684 29.7282,40.6324 46.9882,44.1154 C60.6252,46.8684 69.3692,62.8764 81.3292,69.0254 C83.9972,70.3974 87.1392,68.2964 86.9302,65.3034 C86.8712,64.4554 86.8122,63.6124 86.7532,62.7764 C86.0962,53.5054 87.4822,41.6474 96.7762,41.7184 C113.4392,41.8424 138.3902,41.8234 154.4212,41.6824 C163.1172,41.6054 170.2802,49.5104 170.4912,58.2044 C170.5262,59.6314 170.5592,61.0754 170.5882,62.5334 C170.6462,65.4724 173.8332,67.2784 176.3842,65.8174 C187.1932,59.6264 194.5702,51.6394 196.8562,42.7564 C197.3522,40.8314 197.6252,38.8674 197.6252,36.8684 C197.6252,13.6724 116.2932,-4.2126 74.6252,0.8684" id="Fill-13" fill="#CC2935"/></g></g></g><g id="Head" transform="translate(362.000000, -61.000000) scale(1 1)"><g id="Head/Short Wavy" stroke="none" stroke-width="1" fill="none" fill-rule="evenodd"><g id="Group-29" transform="translate(-21.000000, 61.000000)"><path d="M56.5,125.9999 L45.275,125.9999 C20.27,125.9999 0,105.7299 0,80.7249 C0,76.4579 3.459,72.9999 7.725,72.9999 L56.5,72.9999 C57.328,72.9999 58,73.6709 58,74.4999 L58,124.4999 C58,125.3289 57.328,125.9999 56.5,125.9999" id="Fill-1" fill="#000"/><path d="M55,97.9999 L49.172,97.9999 C28.642,97.9999 12,81.3569 12,60.8279 C12,56.8919 15.191,53.6999 19.128,53.6999 L55,53.6999 L55,97.9999 Z" id="Fill-3" fill="#000"/><path d="M100.5,125.9999 L111.725,125.9999 C136.73,125.9999 157,105.7299 157,80.7249 C157,76.4579 153.541,72.9999 149.275,72.9999 L100.5,72.9999 C99.672,72.9999 99,73.6709 99,74.4999 L99,124.4999 C99,125.3289 99.672,125.9999 100.5,125.9999" id="Fill-5" fill="#000"/><path d="M106,97.9999 L111.828,97.9999 C132.358,97.9999 149,81.3569 149,60.8279 C149,56.8919 145.809,53.6999 141.872,53.6999 L106,53.6999 L106,97.9999 Z" id="Fill-7" fill="#000"/><path d="M77.8008,104.9999 L81.9998,104.9999 L81.9998,-0.0001 L77.8008,-0.0001 C49.7448,-0.0001 26.9998,22.7439 26.9998,50.8009 L26.9998,54.1989 C26.9998,82.2559 49.7448,104.9999 77.8008,104.9999" id="Fill-9" fill="#000"/><path d="M87.8286,104.9999 L81.8706,104.9999 C73.6576,104.9999 66.9996,98.3419 66.9996,90.1299 L66.9996,14.8699 C66.9996,6.6579 73.6576,-0.0001 81.8706,-0.0001 L87.8286,-0.0001 C114.9846,-0.0001 136.9996,22.0149 136.9996,49.1709 L136.9996,55.8289 C136.9996,82.9849 114.9846,104.9999 87.8286,104.9999" id="Fill-12" fill="#000"/><path d="M89.1992,74.9999 L80.0002,74.9999 L80.0002,-0.0001 L89.1992,-0.0001 C117.2552,-0.0001 140.0002,12.7439 140.0002,40.8009 L140.0002,54.1989 C140.0002,74.9999 117.2552,74.9999 89.1992,74.9999" id="Fill-15" fill="#000"/><path d="M56,72.9999 L101,72.9999 L101,124.6329 C101,138.5379 90.927,149.8099 78.5,149.8099 C66.073,149.8099 56,138.5379 56,124.6329 L56,72.9999 Z" id="SKIN" fill="#ffdbb4"/><path d="M103.0525,104.9999 L98.0655,104.9999 C74.8335,104.9999 56.0005,86.1669 56.0005,62.9349 L56.0005,43.2029 C56.0005,25.4179 70.4175,10.9999 88.2035,10.9999 L93.7965,10.9999 C111.5825,10.9999 126.0005,25.4179 126.0005,43.2029 L126.0005,82.0519 C126.0005,94.7259 115.7265,104.9999 103.0525,104.9999" id="SKIN" fill="#ffdbb4"/><path d="M77.7507501,107.331676 C68.4557924,104.043569 63.8185822,95.7386742 61.9822222,84.5680961 C69.2532122,96.6701724 82.4406226,104.813226 97.5439426,104.996733 L98.0655,104.9999 L101,104.9999 C93.0632106,109.229739 85.3134606,110.006998 77.7507501,107.331676 Z" id="SHADOW" fill="#000" opacity=".12"/><path d="M68,69.4999 C68,76.4029 62.404,81.9999 55.5,81.9999 C48.596,81.9999 43,76.4029 43,69.4999 C43,62.5969 48.596,56.9999 55.5,56.9999 C62.404,56.9999 68,62.5969 68,69.4999" id="SKIN" fill="#ffdbb4"/><path d="M53.0669,64.1684 C53.9717309,64.1684 55.2238875,64.3770928 56.5087204,65.0195092 C58.6552998,66.0927989 60.0129325,68.055228 60.10401,70.9020045 L60.1089,71.2104 L57.1089,71.2104 C57.1089,69.3750144 56.4075866,68.3230443 55.1670796,67.7027908 C54.7064142,67.4724581 54.1975823,67.3198085 53.686239,67.2345846 C53.4346302,67.1926498 53.2384731,67.1746448 53.1249097,67.169808 L53.0669,67.1684 L53.0669,64.1684 Z" id="Stroke-24" fill="#000" fill-rule="nonzero"/><path d="M54,56.9999 L52.464,56.9999 C46.61,51.3079 44.361,39.7079 43.683,28.4489 C42.754,13.0199 69.542,-0.0001 84.999,-0.0001 L84.999,-0.0001 C96.89,-0.0001 108.025,5.8309 114.797,15.6049 L122,25.9999 L80.697,25.9999 C80.697,42.9999 66,56.9999 54,56.9999" id="Fill-26" fill="#000"/></g></g></g><g id="Expression" transform="translate(409.000000, 34.000000) scale(1 1)" fill="#000"><g id="Expression/Laughing" stroke="none" stroke-width="1" fill="none" fill-rule="evenodd"><g id="Group-20" transform="translate(7.500000, 5.500000)" fill="#000"><polygon id="Stroke-1" fill-rule="nonzero" points="25.4714706 13.8830993 28.4213294 13.3369007 32.7076381 36.486 22.8344 36.486 22.8344 33.486 29.101 33.486"/><polygon id="Stroke-2" fill-rule="nonzero" points="25.4714706 13.8830993 28.4213294 13.3369007 32.7076381 36.486 22.8344 36.486 22.8344 33.486 29.101 33.486"/><g id="Group-19" transform="translate(0.000000, 0.986500)"><path d="M16.8347,0.0141 L16.8347,3.0141 C12.8614229,3.0141 9.23835727,4.07954738 6.03595274,5.85838405 C4.91508362,6.48099218 3.9293314,7.14693565 3.08971515,7.8096842 L2.65302753,8.16468165 C2.44161937,8.34219833 2.28256753,8.48525254 2.17768642,8.58573303 L2.12127275,8.64084759 L0.000127251271,6.51935241 C0.850658012,5.66896184 2.39872067,4.44700326 4.57919726,3.23581595 C8.05718891,1.30389915 11.9861553,0.112129187 16.2942223,0.0198786563 L16.8347,0.0141 Z" id="Stroke-3" fill-rule="nonzero"/><path d="M28.8944,0.3579 C32.8871281,0.3579 36.5186416,1.42583258 39.717187,3.20263498 C41.5297756,4.20953386 42.8489265,5.22597949 43.6282704,5.97249887 L43.7680602,6.10923983 L41.6467398,8.23056017 L41.4403381,8.03797919 C41.2900613,7.90399677 41.0808944,7.72704819 40.815131,7.5172443 C40.087555,6.94286785 39.2326886,6.36529507 38.260363,5.82516502 C35.6146324,4.35545302 32.6384875,3.44731034 29.3845651,3.36415325 L28.8944,3.3579 L28.8944,0.3579 Z" id="Stroke-5" fill-rule="nonzero"/><path d="M4.44168496,16.942914 C6.93136311,10.7187186 17.7247131,10.6428138 19.2529395,16.9686094 L19.305271,17.2058258 L16.363529,17.7941742 C15.6883751,14.4184049 8.9493145,14.3591809 7.30999365,17.8658178 L7.22711504,18.057086 L4.44168496,16.942914 Z" id="Stroke-7" fill-rule="nonzero"/><path d="M29.441685,16.942914 C31.9313631,10.7187186 42.7247131,10.6428138 44.2529395,16.9686094 L44.305271,17.2058258 L41.363529,17.7941742 C40.6883751,14.4184049 33.9493145,14.3591809 32.3099937,17.8658178 L32.227115,18.057086 L29.441685,16.942914 Z" id="Stroke-9" fill-rule="nonzero"/><polygon id="Stroke-11" fill-rule="nonzero" points="25.4714706 12.8965993 28.4213294 12.3504007 32.7076381 35.4995 22.8344 35.4995 22.8344 32.4995 29.101 32.499"/><path d="M33.8344,50.5 L21.0034,50.5 C16.4920522,50.5 12.8344,46.8946 12.8344,42.4468 L12.8344,41.5 L33.8344,41.5 C32.3825742,43.3530787 32.3825742,47.3068471 33.8344,50.5 Z" id="Fill-15"/></g></g><polygon id="Stroke-5" fill="#000" fill-rule="nonzero" points="33.1977829 19.396766 36.1476171 18.850434 40.4350211 41.9996 30.5607 41.9996 30.5607 38.9996 36.828 38.999"/></g></g><g id="Accessories" transform="translate(396.000000, 56.000000) scale(1 1)" fill="#000"><g id="Accessories/N65" stroke="none" stroke-width="1" fill="none" fill-rule="evenodd"><path d="M55.1977784,0.766509801 C61.8672688,0.766509801 65.5931791,6.91877559 68.3190852,9.67622448 C68.5366389,9.86933778 68.7500465,10.0676638 68.9593821,10.2698541 C69.0753941,10.3682311 69.1897807,10.4565674 69.3026336,10.535583 L69.2915753,10.5973925 C73.2112403,14.5427001 75.6165684,19.8776287 75.6165684,25.7499259 C75.6165684,37.9001904 65.3191176,47.7499259 52.6165684,47.7499259 C39.9140192,47.7499259 29.6165684,37.9001904 29.6165684,25.7499259 C29.6165684,17.6330728 34.2120776,10.5428914 41.0501479,6.73002773 L41.0440543,6.69219525 L41.0440543,6.69219525 C46.4836096,4.14573474 47.6906867,0.766509801 55.1977784,0.766509801 Z" id="Clothe" fill="#D8D8D8"/><path d="M32.6165684,20.7333421 C32.6165684,32.8836066 42.9140192,42.7333421 55.6165684,42.7333421 C63.0741024,42.7333421 69.702661,39.3383929 73.9051908,34.0761112 C70.4693708,42.0893844 62.2320375,47.7333421 52.6165684,47.7333421 C39.9140192,47.7333421 29.6165684,37.8836066 29.6165684,25.7333421 C29.6165684,20.7166936 31.3720069,16.0922234 34.3273758,12.3912869 C33.2246542,14.9640107 32.6165684,17.7807509 32.6165684,20.7333421 Z" id="SHADOW" fill="#000" opacity=".12"/><line x1="0" y1="0" x2="34.913" y2="14.229" id="Path-4" stroke="#22252B" stroke-width="2"/><line x1="33.673" y1="28.173" x2="0" y2="28.173" id="Path-5" stroke="#22252B" stroke-width="2"/></g></g><g id="Glasses" transform="translate(388.000000, 42.000000) scale(1 1)" fill="#000"><g id="Glasses/Round Big" stroke="none" stroke-width="1" fill="none" fill-rule="evenodd"><path d="M59,16 C59,25.3888407 51.3888407,33 42,33 C32.719077,33 25.175204,25.5628044 25.0030079,16.3230397 L25,16 L0,16 L0,14 L25.1163521,14.0004624 C26.106,5.55389893 33.2876275,-1 42,-1 C50.7123725,-1 57.894,5.55389893 58.8836479,14.0004624 L61.1163521,14.0004624 C62.106,5.55389893 69.2876275,-1 78,-1 C87.3888407,-1 95,6.61115925 95,16 C95,25.3888407 87.3888407,33 78,33 C68.719077,33 61.175204,25.5628044 61.0030079,16.3230397 L61,16 L59,16 Z M42,1 C33.7157288,1 27,7.71572875 27,16 C27,24.2842712 33.7157288,31 42,31 C50.2842712,31 57,24.2842712 57,16 C57,7.71572875 50.2842712,1 42,1 Z M78,1 C69.7157288,1 63,7.71572875 63,16 C63,24.2842712 69.7157288,31 78,31 C86.2842712,31 93,24.2842712 93,16 C93,7.71572875 86.2842712,1 78,1 Z" id="Shape" fill="#000"/></g></g></g></g><g id="Desk" transform="translate(171.000000, 207.000000)"><rect id="Rectangle" fill="#BE6FFB" x="290" y="0" width="257" height="217"/><rect id="Rectangle" fill="#CCA4FF" x="290" y="0" width="26" height="217"/><g id="keyboard" transform="translate(185.000000, 258.000000)"><rect id="Rectangle" fill="#C67BFF" x="0" y="0" width="203" height="15"/><rect id="Rectangle" fill="#F2E7FF" x="0" y="0" width="68" height="15"/></g><rect id="Rectangle" fill="#BE6FFB" x="56" y="272" width="520" height="38"/><rect id="Rectangle" fill="#CCA4FF" x="56" y="272" width="174" height="38"/><rect id="Rectangle" fill="#E4CEFF" x="56" y="272" width="257" height="38"/><polygon id="Rectangle" fill="#CCA4FF" points="72 310 106 310 18 700 -6.36626862e-12 700"/><polygon id="Rectangle" fill="#CCA4FF" transform="translate(330.000000, 505.000000) scale(-1, 1) translate(-330.000000, -505.000000)" points="349 310 383 310 295 700 277 700"/><polygon id="Rectangle" fill="#CCA4FF" transform="translate(584.000000, 505.000000) scale(-1, 1) translate(-584.000000, -505.000000)" points="603 310 637 310 549 700 531 700"/><rect id="Rectangle" fill="#870CF7" x="425" y="83" width="63" height="189"/><rect id="Rectangle" fill="#CCA4FF" x="425" y="83" width="18" height="189"/></g></g></svg>